<?xml version="1.0" encoding="UTF-8"?>
<svg xmlns="http://www.w3.org/2000/svg" width="841mm" height="594mm" viewBox="0 0 841 594">
<defs><marker id="a" viewBox="0 0 10 10" refX="5" refY="5" markerWidth="3" markerHeight="3" orient="auto-start-reverse"><path d="M0,1 L10,5 L0,9 z"/></marker><marker id="f" viewBox="0 0 10 10" refX="5" refY="5" markerWidth="4" markerHeight="4" orient="auto"><path d="M0,1 L10,5 L0,9 z" fill="#1565c0"/></marker></defs>
<rect width="841" height="594" fill="#fff"/>
<rect x="10" y="10" width="821" height="574" fill="none" stroke="#000" stroke-width="0.7"/>
<text x="30.00" y="30.00" font-size="5" text-anchor="start" font-weight="bold" fill="#000" font-family="DejaVu Sans, Arial">SECTION A-A (between ribs, through a petal tip and a vent) · scale 1:4</text>
<g transform="translate(225.00,150.00) scale(0.25)"><path d=" M -750,-352.304 L -725,-345.605 L -725,-348.711 L -750,-355.409 z M -715,-342.925 L -240,-215.65 L -240,-212.544 L -213.25,-205.376 L -213.25,-211.588 L -715,-346.031 z M -251.5,56 L -245.5,56 L -245.5,-4 L -242.5,-4 L -242.5,-0 L -224.5,-0 L -224.5,-4 L -163.625,-4 L -163.625,-12 L -251.5,-12 L -251.5,19 L -250,19 L -250,35 L -251.5,35 z M -206.75,-203.634 L -181.528,-196.876 L -55,-88.1864 L -55,150 L -51.8,150 L -51.8,-92 L -51.8,-92 L -108.808,-139.836 L -98,-139.836 L -98,-142.836 L -110,-142.836 L -110,-140.836 L -180,-199.573 L -140,-188.855 L -140,-191.96 L -206.75,-209.846 z M -133.625,-4 L -55.75,-4 L -55.75,-72 L -61.75,-72 L -61.75,-12 L -133.625,-12 z M -25,-139.836 L -15,-139.836 L -15,-142.836 L -25,-142.836 z M 15,-139.836 L 25,-139.836 L 25,-142.836 L 15,-142.836 z M 51.8,-92 L 51.8,-92 L 51.8,150 L 55,150 L 55,-88.1864 L 181.528,-196.876 L 206.75,-203.634 L 206.75,-209.846 L 140,-191.96 L 140,-188.855 L 180,-199.573 L 110,-140.836 L 110,-142.836 L 98,-142.836 L 98,-139.836 L 108.808,-139.836 z M 55.75,-4 L 133.625,-4 L 133.625,-12 L 61.75,-12 L 61.75,-72 L 55.75,-72 z M 163.625,-4 L 224.5,-4 L 224.5,-0 L 242.5,-0 L 242.5,-4 L 245.5,-4 L 245.5,56 L 251.5,56 L 251.5,35 L 250,35 L 250,19 L 251.5,19 L 251.5,-12 L 163.625,-12 z M 213.25,-205.376 L 240,-212.544 L 240,-215.65 L 715,-342.925 L 715,-346.031 L 213.25,-211.588 z M 725,-345.605 L 750,-352.304 L 750,-355.409 L 725,-348.711 z " fill="#cfd8dc" stroke="#000" stroke-width="1.20" fill-rule="evenodd"/></g>
<line x1="37.50" y1="61.15" x2="37.50" y2="49.65" stroke="#000" stroke-width="0.18"/>
<line x1="412.50" y1="61.15" x2="412.50" y2="49.65" stroke="#000" stroke-width="0.18"/>
<line x1="37.50" y1="51.15" x2="412.50" y2="51.15" stroke="#000" stroke-width="0.18" marker-start="url(#a)" marker-end="url(#a)"/>
<text x="225.00" y="49.95" font-size="3.2" text-anchor="middle" font-weight="normal" fill="#000" font-family="DejaVu Sans, Arial">Ø1500 petal tips (plan)</text>
<line x1="225.00" y1="61.15" x2="420.00" y2="61.15" stroke="#000" stroke-width="0.15" stroke-dasharray="1.5,1"/>
<text x="421.50" y="62.25" font-size="2.8" text-anchor="start" font-weight="normal" fill="#000" font-family="DejaVu Sans, Arial">z 355 petal tip top</text>
<line x1="225.00" y1="100.11" x2="420.00" y2="100.11" stroke="#000" stroke-width="0.15" stroke-dasharray="1.5,1"/>
<text x="421.50" y="101.21" font-size="2.8" text-anchor="start" font-weight="normal" fill="#000" font-family="DejaVu Sans, Arial">z 200 funnel lip</text>
<line x1="225.00" y1="127.00" x2="420.00" y2="127.00" stroke="#000" stroke-width="0.15" stroke-dasharray="1.5,1"/>
<text x="421.50" y="128.10" font-size="2.8" text-anchor="start" font-weight="normal" fill="#000" font-family="DejaVu Sans, Arial">z 92 funnel to outlet tube</text>
<line x1="225.00" y1="150.00" x2="420.00" y2="150.00" stroke="#000" stroke-width="0.15" stroke-dasharray="1.5,1"/>
<text x="421.50" y="151.10" font-size="2.8" text-anchor="start" font-weight="normal" fill="#000" font-family="DejaVu Sans, Arial">z 0 = top of tinaco lid neck</text>
<line x1="225.00" y1="187.50" x2="420.00" y2="187.50" stroke="#000" stroke-width="0.15" stroke-dasharray="1.5,1"/>
<text x="421.50" y="188.60" font-size="2.8" text-anchor="start" font-weight="normal" fill="#000" font-family="DejaVu Sans, Arial">z -150 tube end in tank</text>
<polyline points="47.50,64.15 180.00,99.11 215.00,124.00 225.00,127.00 225.00,195.00" fill="none" stroke="#1565c0" stroke-width="0.8" stroke-dasharray="3,1.5" marker-end="url(#f)"/>
<text x="30.00" y="37.00" font-size="3.2" text-anchor="start" font-weight="normal" fill="#1565c0" font-family="DejaVu Sans, Arial">Drainage (blue): rain → petal (15° fall) → petal edge laps 40 mm inside the funnel lip → funnel (40°) → Ø110 tube → tank. Funnel and petals are carried by 4 ribs (B-B).</text>
<text x="30.00" y="190.00" font-size="5" text-anchor="start" font-weight="bold" fill="#000" font-family="DejaVu Sans, Arial">SECTION B-B (through two support ribs) · scale 1:4</text>
<g transform="translate(225.00,305.00) scale(0.25)"><path d=" M -750,-352.304 L -725,-345.605 L -725,-348.711 L -750,-355.409 z M -715,-342.925 L -518.404,-290.248 L -251.5,-11 L -251.5,19 L -250,19 L -250,35 L -251.5,35 L -251.5,56 L -245.5,56 L -245.5,-4 L -242.5,-4 L -242.5,-0 L -224.5,-0 L -224.5,-4 L -55.75,-4 L -55.75,-72 L -60.75,-72 L -59,-76 L -59,-91.6225 L -55,-88.1864 L -55,150 L -51.8,150 L -51.8,-92 L -51.8,-92 L -108.808,-139.836 L -98,-139.836 L -98,-142.836 L -110,-142.836 L -110,-140.836 L -176.086,-196.288 L -178.602,-199.198 L -140,-188.855 L -140,-191.96 L -206.75,-209.846 L -206.75,-207.983 L -213.25,-209.724 L -213.25,-211.588 L -715,-346.031 z M -25,-139.836 L -15,-139.836 L -15,-142.836 L -25,-142.836 z M 15,-139.836 L 25,-139.836 L 25,-142.836 L 15,-142.836 z M 51.8,-92 L 51.8,-92 L 51.8,150 L 55,150 L 55,-88.1864 L 59,-91.6225 L 59,-76 L 60.75,-72 L 55.75,-72 L 55.75,-4 L 224.5,-4 L 224.5,-0 L 242.5,-0 L 242.5,-4 L 245.5,-4 L 245.5,56 L 251.5,56 L 251.5,35 L 250,35 L 250,19 L 251.5,19 L 251.5,-11 L 518.404,-290.248 L 715,-342.925 L 715,-346.031 L 213.25,-211.588 L 213.25,-209.724 L 206.75,-207.983 L 206.75,-209.846 L 140,-191.96 L 140,-188.855 L 178.602,-199.198 L 176.086,-196.288 L 110,-140.836 L 110,-142.836 L 98,-142.836 L 98,-139.836 L 108.808,-139.836 z M 725,-345.605 L 750,-352.304 L 750,-355.409 L 725,-348.711 z " fill="#cfd8dc" stroke="#000" stroke-width="1.20" fill-rule="evenodd"/></g>
<text x="30.00" y="197.00" font-size="3.2" text-anchor="start" font-weight="normal" fill="#000" font-family="DejaVu Sans, Arial">4 ribs × 8 mm tie the funnel wall and petal underside to the adapter plate and socket; rib height 279 mm at r 520.</text>
<line x1="95.00" y1="216.15" x2="95.00" y2="210.65" stroke="#000" stroke-width="0.18"/>
<line x1="355.00" y1="216.15" x2="355.00" y2="210.65" stroke="#000" stroke-width="0.18"/>
<line x1="95.00" y1="212.15" x2="355.00" y2="212.15" stroke="#000" stroke-width="0.18" marker-start="url(#a)" marker-end="url(#a)"/>
<text x="225.00" y="210.95" font-size="3.2" text-anchor="middle" font-weight="normal" fill="#000" font-family="DejaVu Sans, Arial">rib reach Ø1040</text>
<text x="30.00" y="345.00" font-size="5" text-anchor="start" font-weight="bold" fill="#000" font-family="DejaVu Sans, Arial">DETAIL C: tinaco adapter and outlet (from A-A) · scale 1:2</text>
<clipPath id="c_section_a_50"><rect x="-300" y="-250" width="600" height="425"/></clipPath>
<g transform="translate(190.00,505.00) scale(0.5)" clip-path="url(#c_section_a_50)"><path d=" M -750,-352.304 L -725,-345.605 L -725,-348.711 L -750,-355.409 z M -715,-342.925 L -240,-215.65 L -240,-212.544 L -213.25,-205.376 L -213.25,-211.588 L -715,-346.031 z M -251.5,56 L -245.5,56 L -245.5,-4 L -242.5,-4 L -242.5,-0 L -224.5,-0 L -224.5,-4 L -163.625,-4 L -163.625,-12 L -251.5,-12 L -251.5,19 L -250,19 L -250,35 L -251.5,35 z M -206.75,-203.634 L -181.528,-196.876 L -55,-88.1864 L -55,150 L -51.8,150 L -51.8,-92 L -51.8,-92 L -108.808,-139.836 L -98,-139.836 L -98,-142.836 L -110,-142.836 L -110,-140.836 L -180,-199.573 L -140,-188.855 L -140,-191.96 L -206.75,-209.846 z M -133.625,-4 L -55.75,-4 L -55.75,-72 L -61.75,-72 L -61.75,-12 L -133.625,-12 z M -25,-139.836 L -15,-139.836 L -15,-142.836 L -25,-142.836 z M 15,-139.836 L 25,-139.836 L 25,-142.836 L 15,-142.836 z M 51.8,-92 L 51.8,-92 L 51.8,150 L 55,150 L 55,-88.1864 L 181.528,-196.876 L 206.75,-203.634 L 206.75,-209.846 L 140,-191.96 L 140,-188.855 L 180,-199.573 L 110,-140.836 L 110,-142.836 L 98,-142.836 L 98,-139.836 L 108.808,-139.836 z M 55.75,-4 L 133.625,-4 L 133.625,-12 L 61.75,-12 L 61.75,-72 L 55.75,-72 z M 163.625,-4 L 224.5,-4 L 224.5,-0 L 242.5,-0 L 242.5,-4 L 245.5,-4 L 245.5,56 L 251.5,56 L 251.5,35 L 250,35 L 250,19 L 251.5,19 L 251.5,-12 L 163.625,-12 z M 213.25,-205.376 L 240,-212.544 L 240,-215.65 L 715,-342.925 L 715,-346.031 L 213.25,-211.588 z M 725,-345.605 L 750,-352.304 L 750,-355.409 L 725,-348.711 z " fill="#cfd8dc" stroke="#000" stroke-width="0.60" fill-rule="evenodd"/></g>
<line x1="64.25" y1="499.00" x2="64.25" y2="452.50" stroke="#000" stroke-width="0.18"/>
<line x1="315.75" y1="499.00" x2="315.75" y2="452.50" stroke="#000" stroke-width="0.18"/>
<line x1="64.25" y1="454.00" x2="315.75" y2="454.00" stroke="#000" stroke-width="0.18" marker-start="url(#a)" marker-end="url(#a)"/>
<text x="190.00" y="452.80" font-size="3.2" text-anchor="middle" font-weight="normal" fill="#000" font-family="DejaVu Sans, Arial">adapter plate Ø503 × 8</text>
<line x1="67.25" y1="539.00" x2="312.75" y2="539.00" stroke="#000" stroke-width="0.18" marker-start="url(#a)" marker-end="url(#a)"/>
<text x="190.00" y="544.00" font-size="3" text-anchor="middle" font-weight="normal" fill="#000" font-family="DejaVu Sans, Arial">skirt bore Ø491 = measured neck OD + 2 × 3 mm; band clamp in groove, 8 relief slots</text>
<line x1="162.50" y1="565.00" x2="217.50" y2="565.00" stroke="#000" stroke-width="0.18" marker-start="url(#a)" marker-end="url(#a)"/>
<text x="190.00" y="571.00" font-size="3" text-anchor="middle" font-weight="normal" fill="#000" font-family="DejaVu Sans, Arial">outlet PVC Ø110 in socket Ø111.5 × 60 (EPDM lip seal)</text>
<line x1="220.00" y1="469.00" x2="345.00" y2="469.00" stroke="#000" stroke-width="0.15" stroke-dasharray="1.5,1"/>
<text x="346.50" y="470.10" font-size="2.8" text-anchor="start" font-weight="normal" fill="#000" font-family="DejaVu Sans, Arial">z 72 socket top</text>
<line x1="220.00" y1="499.00" x2="345.00" y2="499.00" stroke="#000" stroke-width="0.15" stroke-dasharray="1.5,1"/>
<text x="346.50" y="500.10" font-size="2.8" text-anchor="start" font-weight="normal" fill="#000" font-family="DejaVu Sans, Arial">z 12 plate top; z 4–0 EPDM gasket on neck rim</text>
<text x="505.00" y="30.00" font-size="5" text-anchor="start" font-weight="bold" fill="#000" font-family="DejaVu Sans, Arial">PLAN · scale 1:10</text>
<g transform="translate(585.00,115.00) scale(0.1)"><path d=" M 744.915,-36.5953 L 744.915,-36.5953 L 730.357,-71.9339 L 708.297,-105.066 L 708.297,-105.066 L 707.835,-105.596 L 681.646,-135.588 L 680.951,-136.289 L 653.755,-163.757 L 627.857,-190.458 L 606.53,-217.02 L 591.283,-244.917 L 582.338,-275.425 L 582.181,-276.862 L 578.637,-309.288 L 578.068,-346.481 L 578.062,-347.69 L 577.871,-386.121 L 577.871,-386.121 L 577.808,-387.056 L 575.135,-426.549 L 567.394,-465.136 L 567.305,-465.575 L 552.611,-500.858 L 530.33,-530.33 L 500.858,-552.611 L 465.575,-567.305 L 465.136,-567.394 L 426.549,-575.135 L 387.056,-577.808 L 386.121,-577.871 L 386.121,-577.871 L 347.69,-578.062 L 346.481,-578.068 L 309.288,-578.637 L 276.862,-582.181 L 275.425,-582.338 L 244.917,-591.283 L 217.02,-606.53 L 190.458,-627.857 L 163.757,-653.755 L 136.289,-680.951 L 135.588,-681.646 L 105.066,-708.297 L 71.9339,-730.357 L 36.8551,-744.808 L 36.5953,-744.915 L 0,-750 L -36.5953,-744.915 L -36.5953,-744.915 L -71.9339,-730.357 L -105.066,-708.297 L -105.066,-708.297 L -105.596,-707.835 L -135.588,-681.646 L -136.289,-680.951 L -163.757,-653.755 L -190.458,-627.857 L -217.02,-606.53 L -244.917,-591.283 L -275.425,-582.338 L -276.862,-582.181 L -309.288,-578.637 L -346.481,-578.068 L -347.69,-578.062 L -386.121,-577.871 L -386.121,-577.871 L -387.056,-577.808 L -426.549,-575.135 L -465.136,-567.394 L -465.575,-567.305 L -500.858,-552.611 L -530.33,-530.33 L -552.611,-500.858 L -567.305,-465.575 L -567.394,-465.136 L -575.135,-426.549 L -577.808,-387.056 L -577.871,-386.121 L -577.871,-386.121 L -578.062,-347.69 L -578.068,-346.481 L -578.637,-309.288 L -582.181,-276.862 L -582.338,-275.425 L -591.283,-244.917 L -606.53,-217.02 L -627.857,-190.458 L -653.755,-163.757 L -680.951,-136.289 L -681.646,-135.588 L -707.835,-105.596 L -708.297,-105.066 L -708.297,-105.066 L -730.357,-71.9339 L -744.915,-36.5953 L -744.915,-36.5953 L -750,-0 L -744.915,36.5953 L -744.915,36.5953 L -730.357,71.9339 L -708.297,105.066 L -708.297,105.066 L -707.835,105.596 L -681.646,135.588 L -680.951,136.289 L -653.755,163.757 L -627.857,190.458 L -606.53,217.02 L -591.283,244.917 L -582.338,275.425 L -582.181,276.862 L -578.637,309.288 L -578.068,346.481 L -578.062,347.69 L -577.871,386.121 L -577.871,386.121 L -577.808,387.056 L -575.135,426.549 L -567.394,465.136 L -567.305,465.575 L -552.611,500.858 L -530.33,530.33 L -500.858,552.611 L -465.575,567.305 L -465.136,567.394 L -426.549,575.135 L -387.056,577.808 L -386.121,577.871 L -386.121,577.871 L -347.69,578.062 L -346.481,578.068 L -309.288,578.637 L -276.862,582.181 L -275.425,582.338 L -244.917,591.283 L -217.02,606.53 L -190.458,627.857 L -163.757,653.755 L -136.289,680.951 L -135.588,681.646 L -105.066,708.297 L -71.9339,730.357 L -36.8551,744.808 L -36.5953,744.915 L 0,750 L 36.5953,744.915 L 36.5953,744.915 L 71.9339,730.357 L 105.066,708.297 L 105.066,708.297 L 105.596,707.835 L 135.588,681.646 L 136.289,680.951 L 163.757,653.755 L 190.458,627.857 L 217.02,606.53 L 244.917,591.283 L 275.425,582.338 L 276.862,582.181 L 309.288,578.637 L 346.481,578.068 L 347.69,578.062 L 386.121,577.871 L 386.121,577.871 L 387.056,577.808 L 426.549,575.135 L 465.136,567.394 L 465.575,567.305 L 500.858,552.611 L 530.33,530.33 L 552.611,500.858 L 567.305,465.575 L 567.394,465.136 L 575.135,426.549 L 577.808,387.056 L 577.871,386.121 L 577.871,386.121 L 578.062,347.69 L 578.068,346.481 L 578.637,309.288 L 582.181,276.862 L 582.338,275.425 L 591.283,244.917 L 606.53,217.02 L 627.857,190.458 L 653.755,163.757 L 680.951,136.289 L 681.646,135.588 L 707.835,105.596 L 708.297,105.066 L 708.297,105.066 L 730.357,71.9339 L 744.915,36.5953 L 744.915,36.5953 L 750,-0 z M -0.596848,-715.247 L -3.53552,-716.464 L -5,-720 L -3.53552,-723.536 L 0,-725 L 3.53552,-723.536 L 5,-720 L 3.53552,-716.464 L 0.596848,-715.247 L 0,-715 z M 505.581,-505.581 L 504.117,-509.117 L 505.581,-512.652 L 509.117,-514.117 L 512.652,-512.652 L 514.117,-509.117 L 512.652,-505.581 L 509.117,-504.117 z M -512.652,-505.581 L -514.117,-509.117 L -512.652,-512.652 L -509.117,-514.117 L -505.581,-512.652 L -504.117,-509.117 L -505.581,-505.581 L -509.117,-504.117 z M -207.416,-492.901 L -208.368,-495.199 L -207.416,-497.498 L -205.118,-498.449 L -202.82,-497.498 L -201.868,-495.199 L -202.82,-492.901 L -205.118,-491.949 z M 202.82,-492.901 L 201.868,-495.199 L 202.82,-497.498 L 205.118,-498.449 L 207.416,-497.498 L 208.368,-495.199 L 207.416,-492.901 L 205.118,-491.949 z M 169.72,-406.491 L 167.422,-407.442 L 166.47,-409.741 L 167.422,-412.039 L 169.72,-412.991 L 172.018,-412.039 L 172.97,-409.741 L 172.018,-407.442 z M -172.018,-407.442 L -172.97,-409.741 L -172.018,-412.039 L -169.72,-412.991 L -167.422,-412.039 L -166.47,-409.741 L -167.422,-407.442 L -169.72,-406.491 z M -136.62,-321.984 L -137.572,-324.282 L -136.62,-326.58 L -134.322,-327.532 L -132.024,-326.58 L -131.072,-324.282 L -132.024,-321.984 L -134.322,-321.032 z M 132.024,-321.984 L 131.072,-324.282 L 132.024,-326.58 L 134.322,-327.532 L 136.62,-326.58 L 137.572,-324.282 L 136.62,-321.984 L 134.322,-321.032 z M 495.199,-201.868 L 492.901,-202.82 L 491.949,-205.118 L 492.901,-207.416 L 495.199,-208.368 L 497.498,-207.416 L 498.449,-205.118 L 497.498,-202.82 z M -497.498,-202.82 L -498.449,-205.118 L -497.498,-207.416 L -495.199,-208.368 L -492.901,-207.416 L -491.949,-205.118 L -492.901,-202.82 L -495.199,-201.868 z M 409.741,-166.47 L 407.442,-167.422 L 406.491,-169.72 L 407.442,-172.018 L 409.741,-172.97 L 412.039,-172.018 L 412.991,-169.72 L 412.039,-167.422 z M -412.039,-167.422 L -412.991,-169.72 L -412.039,-172.018 L -409.741,-172.97 L -407.442,-172.018 L -406.491,-169.72 L -407.442,-167.422 L -409.741,-166.47 z M 321.984,-132.024 L 321.032,-134.322 L 321.984,-136.62 L 324.282,-137.572 L 326.58,-136.62 L 327.532,-134.322 L 326.58,-132.024 L 324.282,-131.072 z M -326.58,-132.024 L -327.532,-134.322 L -326.58,-136.62 L -324.282,-137.572 L -321.984,-136.62 L -321.032,-134.322 L -321.984,-132.024 L -324.282,-131.072 z M -3,-25 L -3,-51.6526 L 0,-51.8 L 3,-51.6526 L 3,-25 z M 3.57269,-24.9246 L 10.482,-50.7104 L 15.0367,-49.5695 L 16.2697,-49.1283 L 9.36824,-23.3717 z M -16.2697,-49.1283 L -15.0367,-49.5695 L -10.482,-50.7104 L -3.57269,-24.9246 L -9.36824,-23.3717 z M -28.4458,-43.2695 L -24.4183,-45.6835 L -23.2345,-46.2434 L -9.90192,-23.1506 L -15.0981,-20.1506 z M 9.90192,-23.1506 L 23.2345,-46.2434 L 24.4183,-45.6835 L 28.4458,-43.2695 L 15.0981,-20.1506 z M 15.5563,-19.799 L 34.4026,-38.6452 L 36.6281,-36.6281 L 38.6452,-34.4026 L 19.799,-15.5563 z M -38.6452,-34.4026 L -36.6281,-36.6281 L -34.4026,-38.6452 L -15.5563,-19.799 L -19.799,-15.5563 z M -46.2434,-23.2345 L -45.6835,-24.4183 L -43.2695,-28.4458 L -20.1506,-15.0981 L -23.1506,-9.90192 z M 20.1506,-15.0981 L 43.2695,-28.4458 L 45.6835,-24.4183 L 46.2434,-23.2345 L 23.1506,-9.90192 z M 23.3717,-9.36824 L 49.1283,-16.2697 L 49.5695,-15.0367 L 50.7104,-10.482 L 24.9246,-3.57269 z M -50.7104,-10.482 L -49.5695,-15.0367 L -49.1283,-16.2697 L -23.3717,-9.36824 L -24.9246,-3.57269 z M -1.47025,14.9278 L -2.92635,14.7118 L -4.35426,14.3541 L -5.74025,13.8582 L -7.07094,13.2288 L -8.33354,12.472 L -9.51588,11.5952 L -10.6066,10.6066 L -11.5952,9.51588 L -12.472,8.33354 L -13.2288,7.07094 L -13.8582,5.74025 L -14.3541,4.35426 L -14.7118,2.92635 L -14.9278,1.47025 L -15,-0 L -14.9278,-1.47025 L -14.7118,-2.92635 L -14.3541,-4.35426 L -13.8582,-5.74025 L -13.2288,-7.07094 L -12.472,-8.33354 L -11.5952,-9.51588 L -10.6066,-10.6066 L -9.51588,-11.5952 L -8.33354,-12.472 L -7.07094,-13.2288 L -5.74025,-13.8582 L -4.35426,-14.3541 L -2.92635,-14.7118 L -1.47025,-14.9278 L 0,-15 L 1.47025,-14.9278 L 2.92635,-14.7118 L 4.35426,-14.3541 L 5.74025,-13.8582 L 7.07094,-13.2288 L 8.33354,-12.472 L 9.51588,-11.5952 L 10.6066,-10.6066 L 11.5952,-9.51588 L 12.472,-8.33354 L 13.2288,-7.07094 L 13.8582,-5.74025 L 14.3541,-4.35426 L 14.7118,-2.92635 L 14.9278,-1.47025 L 15,-0 L 14.9278,1.47025 L 14.7118,2.92635 L 14.3541,4.35426 L 13.8582,5.74025 L 13.2288,7.07094 L 12.472,8.33354 L 11.5952,9.51588 L 10.6066,10.6066 L 9.51588,11.5952 L 8.33354,12.472 L 7.07094,13.2288 L 5.74025,13.8582 L 4.35426,14.3541 L 2.92635,14.7118 L 1.47025,14.9278 L 0,15 z M -723.536,3.53552 L -725,-0 L -723.536,-3.53552 L -720,-5 L -716.464,-3.53552 L -715.247,-0.596848 L -715,-0 L -715.247,0.596848 L -716.464,3.53552 L -720,5 z M -51.6526,3 L -51.8,-0 L -51.6526,-3 L -25,-3 L -25,3 z M 25,3 L 25,-3 L 51.6526,-3 L 51.8,-0 L 51.6526,3 z M 23.3717,9.36824 L 24.9246,3.57269 L 50.7104,10.482 L 49.5695,15.0367 L 49.1283,16.2697 z M -49.5695,15.0367 L -50.7104,10.482 L -24.9246,3.57269 L -23.3717,9.36824 L -49.1283,16.2697 z M -45.6835,24.4183 L -46.2434,23.2345 L -23.1506,9.90192 L -20.1506,15.0981 L -43.2695,28.4458 z M 20.1506,15.0981 L 23.1506,9.90192 L 46.2434,23.2345 L 45.6835,24.4183 L 43.2695,28.4458 z M -36.6281,36.6281 L -38.6452,34.4026 L -19.799,15.5563 L -15.5563,19.799 L -34.4026,38.6452 z M 15.5563,19.799 L 19.799,15.5563 L 38.6452,34.4026 L 36.6281,36.6281 L 34.4026,38.6452 z M -15.0981,20.1506 L -9.90192,23.1506 L -23.2345,46.2434 L -24.4183,45.6835 L -28.4458,43.2695 z M 9.90192,23.1506 L 15.0981,20.1506 L 28.4458,43.2695 L 24.4183,45.6835 L 23.2345,46.2434 z M -15.0367,49.5695 L -16.2697,49.1283 L -9.36824,23.3717 L -3.57269,24.9246 L -10.482,50.7104 z M 3.57269,24.9246 L 9.36824,23.3717 L 16.2697,49.1283 L 15.0367,49.5695 L 10.482,50.7104 z M -3,51.6526 L -3,25 L 3,25 L 3,51.6526 L 0,51.8 z M -326.58,136.62 L -327.532,134.322 L -326.58,132.024 L -324.282,131.072 L -321.984,132.024 L -321.032,134.322 L -321.984,136.62 L -324.282,137.572 z M 321.984,136.62 L 321.032,134.322 L 321.984,132.024 L 324.282,131.072 L 326.58,132.024 L 327.532,134.322 L 326.58,136.62 L 324.282,137.572 z M -412.039,172.018 L -412.991,169.72 L -412.039,167.422 L -409.741,166.47 L -407.442,167.422 L -406.491,169.72 L -407.442,172.018 L -409.741,172.97 z M -495.199,208.368 L -497.498,207.416 L -498.449,205.118 L -497.498,202.82 L -495.199,201.868 L -492.901,202.82 L -491.949,205.118 L -492.901,207.416 z M 492.901,207.416 L 491.949,205.118 L 492.901,202.82 L 495.199,201.868 L 497.498,202.82 L 498.449,205.118 L 497.498,207.416 L 495.199,208.368 z M -136.62,326.58 L -137.572,324.282 L -136.62,321.984 L -134.322,321.032 L -132.024,321.984 L -131.072,324.282 L -132.024,326.58 L -134.322,327.532 z M 132.024,326.58 L 131.072,324.282 L 132.024,321.984 L 134.322,321.032 L 136.62,321.984 L 137.572,324.282 L 136.62,326.58 L 134.322,327.532 z M 167.422,412.039 L 166.47,409.741 L 167.422,407.442 L 169.72,406.491 L 172.018,407.442 L 172.97,409.741 L 172.018,412.039 L 169.72,412.991 z M -172.018,412.039 L -172.97,409.741 L -172.018,407.442 L -169.72,406.491 L -167.422,407.442 L -166.47,409.741 L -167.422,412.039 L -169.72,412.991 z M -207.416,497.498 L -208.368,495.199 L -207.416,492.901 L -205.118,491.949 L -202.82,492.901 L -201.868,495.199 L -202.82,497.498 L -205.118,498.449 z M 205.118,498.449 L 202.82,497.498 L 201.868,495.199 L 202.82,492.901 L 205.118,491.949 L 207.416,492.901 L 208.368,495.199 L 207.416,497.498 z M -509.117,514.117 L -512.652,512.652 L -514.117,509.117 L -512.652,505.581 L -509.117,504.117 L -505.581,505.581 L -504.117,509.117 L -505.581,512.652 z M 505.581,512.652 L 504.117,509.117 L 505.581,505.581 L 509.117,504.117 L 512.652,505.581 L 514.117,509.117 L 512.652,512.652 L 509.117,514.117 z M -3.53552,723.536 L -5,720 L -3.53552,716.464 L -0.596848,715.247 L 0,715 L 0.596848,715.247 L 3.53552,716.464 L 5,720 L 3.53552,723.536 L 0,725 z M 720,5 L 716.464,3.53552 L 715.247,0.596848 L 715,-0 L 715.247,-0.596848 L 716.464,-3.53552 L 720,-5 L 723.536,-3.53552 L 725,-0 L 723.536,3.53552 z M 409.741,166.47 L 412.039,167.422 L 412.991,169.72 L 412.039,172.018 L 409.741,172.97 L 407.442,172.018 L 406.491,169.72 L 407.442,167.422 z " fill="#cfd8dc" stroke="#000" stroke-width="3.00" fill-rule="evenodd"/></g>
<text x="585.00" y="199.00" font-size="3" text-anchor="middle" font-weight="normal" fill="#000" font-family="DejaVu Sans, Arial">8 petals: tips Ø1500, notches Ø1280</text>
<text x="690.00" y="30.00" font-size="5" text-anchor="start" font-weight="bold" fill="#000" font-family="DejaVu Sans, Arial">PETAL FLAT PATTERN · 1:10</text>
<g transform="translate(680.00,115.00) scale(0.1)"><path d=" M 611.295,257.47 L 612.102,254.822 L 612.959,252.197 L 613.866,249.595 L 614.826,247.015 L 615.836,244.456 L 616.899,241.918 L 618.014,239.399 L 619.182,236.899 L 620.402,234.417 L 621.675,231.953 L 623,229.504 L 624.377,227.072 L 625.805,224.653 L 627.286,222.249 L 628.818,219.857 L 630.4,217.476 L 632.032,215.107 L 633.714,212.747 L 635.444,210.396 L 637.222,208.052 L 639.046,205.716 L 640.917,203.385 L 642.833,201.058 L 644.792,198.735 L 646.793,196.415 L 648.836,194.096 L 650.919,191.778 L 653.04,189.46 L 655.198,187.139 L 657.391,184.817 L 659.618,182.491 L 661.877,180.161 L 664.167,177.825 L 666.485,175.483 L 668.829,173.134 L 671.199,170.776 L 673.591,168.41 L 676.004,166.034 L 678.436,163.647 L 680.885,161.249 L 683.348,158.838 L 685.824,156.415 L 688.309,153.978 L 690.803,151.526 L 693.302,149.06 L 695.805,146.578 L 698.309,144.079 L 700.812,141.564 L 703.311,139.032 L 705.804,136.482 L 708.288,133.914 L 710.762,131.327 L 713.223,128.721 L 715.668,126.096 L 718.096,123.452 L 720.503,120.787 L 722.888,118.103 L 725.247,115.399 L 727.579,112.674 L 729.881,109.929 L 732.152,107.164 L 734.388,104.378 L 736.587,101.572 L 738.748,98.7458 L 740.867,95.8994 L 742.943,93.0331 L 744.974,90.1471 L 746.957,87.2415 L 748.891,84.3167 L 750.773,81.373 L 752.602,78.4108 L 754.376,75.4303 L 756.092,72.4322 L 757.749,69.4168 L 759.345,66.3846 L 760.879,63.3361 L 762.348,60.272 L 763.752,57.1927 L 765.089,54.099 L 766.357,50.9914 L 767.556,47.8707 L 768.683,44.7374 L 769.738,41.5924 L 770.719,38.4364 L 771.625,35.2701 L 772.456,32.0944 L 773.211,28.91 L 773.888,25.7178 L 774.488,22.5186 L 775.009,19.3132 L 775.45,16.1025 L 775.812,12.8873 L 776.094,9.66861 L 776.296,6.44722 L 776.417,3.22406 L 776.457,-0 L 776.417,-3.22406 L 776.296,-6.44722 L 776.094,-9.66861 L 775.812,-12.8873 L 775.45,-16.1025 L 775.009,-19.3132 L 774.488,-22.5186 L 773.888,-25.7178 L 773.211,-28.91 L 772.456,-32.0944 L 771.625,-35.2701 L 770.719,-38.4364 L 769.738,-41.5924 L 768.683,-44.7374 L 767.556,-47.8707 L 766.357,-50.9914 L 765.089,-54.099 L 763.752,-57.1927 L 762.348,-60.272 L 760.879,-63.3361 L 759.345,-66.3846 L 757.749,-69.4168 L 756.092,-72.4322 L 754.376,-75.4303 L 752.602,-78.4108 L 750.773,-81.373 L 748.891,-84.3167 L 746.957,-87.2415 L 744.974,-90.1471 L 742.943,-93.0331 L 740.867,-95.8994 L 738.748,-98.7458 L 736.587,-101.572 L 734.388,-104.378 L 732.152,-107.164 L 729.881,-109.929 L 727.579,-112.674 L 725.247,-115.399 L 722.888,-118.103 L 720.503,-120.787 L 718.096,-123.452 L 715.668,-126.096 L 713.223,-128.721 L 710.762,-131.327 L 708.288,-133.914 L 705.804,-136.482 L 703.311,-139.032 L 700.812,-141.564 L 698.309,-144.079 L 695.805,-146.578 L 693.302,-149.06 L 690.803,-151.526 L 688.309,-153.978 L 685.824,-156.415 L 683.348,-158.838 L 680.885,-161.249 L 678.436,-163.647 L 676.004,-166.034 L 673.591,-168.41 L 671.199,-170.776 L 668.829,-173.134 L 666.485,-175.483 L 664.167,-177.825 L 661.877,-180.161 L 659.618,-182.491 L 657.391,-184.817 L 655.198,-187.139 L 653.04,-189.46 L 650.919,-191.778 L 648.836,-194.096 L 646.793,-196.415 L 644.792,-198.735 L 642.833,-201.058 L 640.917,-203.385 L 639.046,-205.716 L 637.222,-208.052 L 635.444,-210.396 L 633.714,-212.747 L 632.032,-215.107 L 630.4,-217.476 L 628.818,-219.857 L 627.286,-222.249 L 625.805,-224.653 L 624.377,-227.072 L 623,-229.504 L 621.675,-231.953 L 620.402,-234.417 L 619.182,-236.899 L 618.014,-239.399 L 616.899,-241.918 L 615.836,-244.456 L 614.826,-247.015 L 613.866,-249.595 L 612.959,-252.197 L 612.102,-254.822 L 611.295,-257.47 L 610.443,-259.483 L 510.096,-219.482 L 459.918,-199.479 L 409.735,-179.474 L 359.545,-159.467 L 339.467,-151.462 L 319.386,-143.457 L 299.303,-135.451 L 279.218,-127.444 L 269.174,-123.44 L 249.084,-115.43 L 239.037,-111.424 L 228.988,-107.418 L 218.939,-103.411 L 208.887,-99.4036 L 198.834,-95.395 L 188.778,-91.3853 L 178.72,-87.3744 L 168.659,-83.362 L 158.594,-79.3478 L 148.525,-75.3316 L 138.451,-71.3127 L 128.371,-67.2907 L 129.699,-64.6948 L 130.974,-62.0727 L 132.196,-59.4255 L 133.365,-56.7542 L 134.479,-54.06 L 135.54,-51.3439 L 136.545,-48.6071 L 137.495,-45.8505 L 138.39,-43.0754 L 139.228,-40.2829 L 140.01,-37.4741 L 140.736,-34.6501 L 141.404,-31.8121 L 142.016,-28.9612 L 142.57,-26.0986 L 143.066,-23.2254 L 143.504,-20.3428 L 143.884,-17.452 L 144.206,-14.5541 L 144.47,-11.6504 L 144.675,-8.74191 L 144.821,-5.82991 L 144.909,-2.91554 L 144.939,-0 L 144.909,2.91554 L 144.821,5.82991 L 144.675,8.74191 L 144.47,11.6504 L 144.206,14.5541 L 143.884,17.452 L 143.504,20.3428 L 143.066,23.2254 L 142.57,26.0986 L 142.016,28.9612 L 141.404,31.8121 L 140.736,34.6501 L 140.01,37.4741 L 139.228,40.2829 L 138.39,43.0754 L 137.495,45.8505 L 136.545,48.6071 L 135.54,51.3439 L 134.479,54.06 L 133.365,56.7542 L 132.196,59.4255 L 130.974,62.0727 L 129.699,64.6948 L 128.371,67.2907 L 138.451,71.3127 L 148.525,75.3316 L 158.594,79.3478 L 168.659,83.362 L 178.72,87.3744 L 188.778,91.3853 L 198.834,95.395 L 208.887,99.4036 L 218.939,103.411 L 228.988,107.418 L 239.037,111.424 L 249.084,115.43 L 269.174,123.44 L 279.218,127.444 L 299.303,135.451 L 319.386,143.457 L 339.467,151.462 L 369.584,163.468 L 409.735,179.474 L 469.954,203.48 L 580.34,247.483 L 610.443,259.483 z M 514.22,-202.473 L 513.166,-203.177 L 512.461,-204.232 L 512.214,-205.475 L 512.461,-206.719 L 513.166,-207.773 L 514.22,-208.478 L 515.464,-208.725 L 516.707,-208.478 L 517.762,-207.773 L 518.466,-206.719 L 518.714,-205.475 L 518.466,-204.232 L 517.762,-203.177 L 516.707,-202.473 L 515.464,-202.225 z M 425.264,-167.013 L 424.21,-167.717 L 423.505,-168.772 L 423.258,-170.016 L 423.505,-171.259 L 424.21,-172.314 L 425.264,-173.018 L 426.508,-173.266 L 427.751,-173.018 L 428.806,-172.314 L 429.51,-171.259 L 429.758,-170.016 L 429.51,-168.772 L 428.806,-167.717 L 427.751,-167.013 L 426.508,-166.766 z M 336.308,-131.553 L 335.254,-132.258 L 334.549,-133.312 L 334.302,-134.556 L 334.549,-135.799 L 335.254,-136.854 L 336.308,-137.558 L 337.552,-137.806 L 338.795,-137.558 L 339.85,-136.854 L 340.554,-135.799 L 340.802,-134.556 L 340.554,-133.312 L 339.85,-132.258 L 338.795,-131.553 L 337.552,-131.306 z M 212.266,-37.984 L 211.211,-38.6885 L 210.507,-39.7429 L 210.26,-40.9866 L 210.507,-42.2304 L 211.211,-43.2847 L 212.266,-43.9893 L 213.51,-44.2366 L 214.753,-43.9893 L 215.808,-43.2847 L 216.512,-42.2304 L 216.76,-40.9866 L 216.512,-39.7429 L 215.808,-38.6885 L 214.753,-37.984 L 213.51,-37.7366 z M 743.485,4.61938 L 741.863,3.53552 L 740.779,1.91341 L 740.399,-0 L 740.779,-1.91341 L 741.863,-3.53552 L 743.485,-4.61938 L 745.399,-5 L 747.312,-4.61938 L 748.934,-3.53552 L 750.018,-1.91341 L 750.399,-0 L 750.018,1.91341 L 748.934,3.53552 L 747.312,4.61938 L 745.399,5 z M 216.164,3.00259 L 215.11,2.2981 L 214.405,1.24371 L 214.158,-0 L 214.405,-1.24371 L 215.11,-2.2981 L 216.164,-3.00259 L 217.408,-3.25 L 218.652,-3.00259 L 219.706,-2.2981 L 220.411,-1.24371 L 220.658,-0 L 220.411,1.24371 L 219.706,2.2981 L 218.652,3.00259 L 217.408,3.25 z M 212.266,43.9893 L 211.211,43.2847 L 210.507,42.2304 L 210.26,40.9866 L 210.507,39.7429 L 211.211,38.6885 L 212.266,37.984 L 213.51,37.7366 L 214.753,37.984 L 215.808,38.6885 L 216.512,39.7429 L 216.76,40.9866 L 216.512,42.2304 L 215.808,43.2847 L 214.753,43.9893 L 213.51,44.2366 z M 336.308,137.558 L 335.254,136.854 L 334.549,135.799 L 334.302,134.556 L 334.549,133.312 L 335.254,132.258 L 336.308,131.553 L 337.552,131.306 L 338.795,131.553 L 339.85,132.258 L 340.554,133.312 L 340.802,134.556 L 340.554,135.799 L 339.85,136.854 L 338.795,137.558 L 337.552,137.806 z M 425.264,173.018 L 424.21,172.314 L 423.505,171.259 L 423.258,170.016 L 423.505,168.772 L 424.21,167.717 L 425.264,167.013 L 426.508,166.766 L 427.751,167.013 L 428.806,167.717 L 429.51,168.772 L 429.758,170.016 L 429.51,171.259 L 428.806,172.314 L 427.751,173.018 L 426.508,173.266 z M 514.22,208.478 L 513.166,207.773 L 512.461,206.719 L 512.214,205.475 L 512.461,204.232 L 513.166,203.177 L 514.22,202.473 L 515.464,202.225 L 516.707,202.473 L 517.762,203.177 L 518.466,204.232 L 518.714,205.475 L 518.466,206.719 L 517.762,207.773 L 516.707,208.478 L 515.464,208.725 z " fill="#cfd8dc" stroke="#000" stroke-width="3.00" fill-rule="evenodd"/></g>
<text x="690.00" y="165.00" font-size="3" text-anchor="start" font-weight="normal" fill="#000" font-family="DejaVu Sans, Arial">petal_flat.dxf · cut 8</text>
<text x="690.00" y="170.00" font-size="3" text-anchor="start" font-weight="normal" fill="#000" font-family="DejaVu Sans, Arial">inner R 144.9 · tip R 776.5</text>
<text x="690.00" y="175.00" font-size="3" text-anchor="start" font-weight="normal" fill="#000" font-family="DejaVu Sans, Arial">rolls to the 15° cone (developed)</text>
<text x="690.00" y="180.00" font-size="3" text-anchor="start" font-weight="normal" fill="#000" font-family="DejaVu Sans, Arial">30 mm seam lap · Ø6.5 holes (M6)</text>
<text x="690.00" y="185.00" font-size="3" text-anchor="start" font-weight="normal" fill="#000" font-family="DejaVu Sans, Arial">Ø10 tie hole at the tip</text>
<text x="505.00" y="222.00" font-size="4.5" text-anchor="start" font-weight="bold" fill="#000" font-family="DejaVu Sans, Arial">PARTS LIST (default parameters)</text>
<text x="505.00" y="229.00" font-size="3" text-anchor="start" font-weight="normal" fill="#000" font-family="DejaVu Sans, Arial">1  Petal, 3 mm UV-stabilised HDPE, from petal_flat.dxf ........ 8</text>
<text x="505.00" y="234.00" font-size="3" text-anchor="start" font-weight="normal" fill="#000" font-family="DejaVu Sans, Arial">2  Funnel Ø360 → Ø110, 40°, with 60 mm sloped flange .......... 1</text>
<text x="505.00" y="239.00" font-size="3" text-anchor="start" font-weight="normal" fill="#000" font-family="DejaVu Sans, Arial">3  Outlet tube PVC sanitario Ø110 × 242 mm (z −150 … +92) ... 1</text>
<text x="505.00" y="244.00" font-size="3" text-anchor="start" font-weight="normal" fill="#000" font-family="DejaVu Sans, Arial">4  Leaf screen Ø220 × 3, 24 × 6 mm slots + 0.5 mm steel mesh .. 1</text>
<text x="505.00" y="249.00" font-size="3" text-anchor="start" font-weight="normal" fill="#000" font-family="DejaVu Sans, Arial">5  Adapter: plate Ø503 × 8, skirt × 60, socket, 4 ribs ......... 1</text>
<text x="505.00" y="254.00" font-size="3" text-anchor="start" font-weight="normal" fill="#000" font-family="DejaVu Sans, Arial">6  EPDM gasket Ø485 × 18 × 4 (cut to measured neck) ........... 1</text>
<text x="505.00" y="259.00" font-size="3" text-anchor="start" font-weight="normal" fill="#000" font-family="DejaVu Sans, Arial">7  Stainless worm-drive band for the skirt groove ............. 1</text>
<text x="505.00" y="264.00" font-size="3" text-anchor="start" font-weight="normal" fill="#000" font-family="DejaVu Sans, Arial">8  EPDM lip seal for Ø110 socket ................................ 1</text>
<text x="505.00" y="269.00" font-size="3" text-anchor="start" font-weight="normal" fill="#000" font-family="DejaVu Sans, Arial">9  M6 stainless bolt + 2 washers + nyloc: 24 seam + 24 flange .. 48</text>
<text x="505.00" y="274.00" font-size="3" text-anchor="start" font-weight="normal" fill="#000" font-family="DejaVu Sans, Arial">10 L-brackets + M6 at rib tops (petal and funnel; not modelled) 8</text>
<text x="505.00" y="279.00" font-size="3" text-anchor="start" font-weight="normal" fill="#000" font-family="DejaVu Sans, Arial">11 Stainless mesh discs over the 4 Ø30 vents .................. 4</text>
<text x="505.00" y="284.00" font-size="3" text-anchor="start" font-weight="normal" fill="#000" font-family="DejaVu Sans, Arial">12 Guy lines to roof anchors, from Ø10 tip tie holes ........... 4</text>
<text x="505.00" y="295.00" font-size="4.5" text-anchor="start" font-weight="bold" fill="#000" font-family="DejaVu Sans, Arial">MEASURE BEFORE FABRICATION → parameter</text>
<text x="505.00" y="302.00" font-size="3" text-anchor="start" font-weight="normal" fill="#000" font-family="DejaVu Sans, Arial">M1 Lid-neck outside Ø at the rim, 3 readings 60° apart → neck_od_mm</text>
<text x="505.00" y="307.00" font-size="3" text-anchor="start" font-weight="normal" fill="#000" font-family="DejaVu Sans, Arial">M2 Neck height above tank shoulder (≥ 60 mm free) → skirt_h_mm</text>
<text x="505.00" y="312.00" font-size="3" text-anchor="start" font-weight="normal" fill="#000" font-family="DejaVu Sans, Arial">M3 Rim width / flatness under the gasket → gasket_w_mm</text>
<text x="505.00" y="317.00" font-size="3" text-anchor="start" font-weight="normal" fill="#000" font-family="DejaVu Sans, Arial">M4 Float valve and inlet position under the neck → drop_tube_mm</text>
<text x="505.00" y="322.00" font-size="3" text-anchor="start" font-weight="normal" fill="#000" font-family="DejaVu Sans, Arial">M5 Free height above tank (≥ 400 mm) and radius (≥ 850 mm)</text>
<text x="505.00" y="327.00" font-size="3" text-anchor="start" font-weight="normal" fill="#000" font-family="DejaVu Sans, Arial">M6 Tank overflow pipe present and clear (collector has none)</text>
<text x="505.00" y="332.00" font-size="3" text-anchor="start" font-weight="normal" fill="#000" font-family="DejaVu Sans, Arial">M7 Anchor points for 4 guy lines on parapet / roof slab</text>
<text x="505.00" y="337.00" font-size="3" text-anchor="start" font-weight="normal" fill="#000" font-family="DejaVu Sans, Arial">M8 Lid vent location (replaced by the 4 screened vents)</text>
<rect x="561" y="514" width="270" height="70" fill="none" stroke="#000" stroke-width="0.5"/>
<text x="566.00" y="524.00" font-size="4.5" text-anchor="start" font-weight="bold" fill="#000" font-family="DejaVu Sans, Arial">Flower rainwater collector for a tinaco (#1505)</text>
<text x="566.00" y="531.00" font-size="3" text-anchor="start" font-weight="normal" fill="#000" font-family="DejaVu Sans, Arial">Source: flower_tinaco_collector.scad (all views generated by export.py)</text>
<text x="566.00" y="537.00" font-size="3" text-anchor="start" font-weight="normal" fill="#000" font-family="DejaVu Sans, Arial">Default parameters · units mm · z 0 = top of lid neck · tip top z 355</text>
<text x="566.00" y="543.00" font-size="3" text-anchor="start" font-weight="normal" fill="#000" font-family="DejaVu Sans, Arial">Plan catchment 1.522 m² (model outline; yield is an assumption)</text>
<text x="566.00" y="549.00" font-size="3" text-anchor="start" font-weight="normal" fill="#000" font-family="DejaVu Sans, Arial">STL 10560 tris, volume 9.65 dm³ (all parts)</text>
<text x="566.00" y="555.00" font-size="3" text-anchor="start" font-weight="normal" fill="#000" font-family="DejaVu Sans, Arial">Concept design: not a certified roof or potable-water product.</text>
<text x="566.00" y="561.00" font-size="3" text-anchor="start" font-weight="normal" fill="#000" font-family="DejaVu Sans, Arial">Wind loads not analysed: guy lines required; remove before storms.</text>
<text x="566.00" y="572.00" font-size="3" text-anchor="start" font-weight="normal" fill="#000" font-family="DejaVu Sans, Arial">Sheet A1 · 1/1</text>
</svg>
