  0
SECTION
  2
BLOCKS
  0
ENDSEC
  0
SECTION
  2
ENTITIES
  0
LINE
  8
0
 10
611.295
 20
-257.47
 11
612.102
 21
-254.822
  0
LINE
  8
0
 10
612.102
 20
-254.822
 11
612.959
 21
-252.197
  0
LINE
  8
0
 10
612.959
 20
-252.197
 11
613.866
 21
-249.595
  0
LINE
  8
0
 10
613.866
 20
-249.595
 11
614.826
 21
-247.015
  0
LINE
  8
0
 10
614.826
 20
-247.015
 11
615.836
 21
-244.456
  0
LINE
  8
0
 10
615.836
 20
-244.456
 11
616.899
 21
-241.918
  0
LINE
  8
0
 10
616.899
 20
-241.918
 11
618.014
 21
-239.399
  0
LINE
  8
0
 10
618.014
 20
-239.399
 11
619.182
 21
-236.899
  0
LINE
  8
0
 10
619.182
 20
-236.899
 11
620.402
 21
-234.417
  0
LINE
  8
0
 10
620.402
 20
-234.417
 11
621.675
 21
-231.953
  0
LINE
  8
0
 10
621.675
 20
-231.953
 11
623
 21
-229.504
  0
LINE
  8
0
 10
623
 20
-229.504
 11
624.377
 21
-227.072
  0
LINE
  8
0
 10
624.377
 20
-227.072
 11
625.805
 21
-224.653
  0
LINE
  8
0
 10
625.805
 20
-224.653
 11
627.286
 21
-222.249
  0
LINE
  8
0
 10
627.286
 20
-222.249
 11
628.818
 21
-219.857
  0
LINE
  8
0
 10
628.818
 20
-219.857
 11
630.4
 21
-217.476
  0
LINE
  8
0
 10
630.4
 20
-217.476
 11
632.032
 21
-215.107
  0
LINE
  8
0
 10
632.032
 20
-215.107
 11
633.714
 21
-212.747
  0
LINE
  8
0
 10
633.714
 20
-212.747
 11
635.444
 21
-210.396
  0
LINE
  8
0
 10
635.444
 20
-210.396
 11
637.222
 21
-208.052
  0
LINE
  8
0
 10
637.222
 20
-208.052
 11
639.046
 21
-205.716
  0
LINE
  8
0
 10
639.046
 20
-205.716
 11
640.917
 21
-203.385
  0
LINE
  8
0
 10
640.917
 20
-203.385
 11
642.833
 21
-201.058
  0
LINE
  8
0
 10
642.833
 20
-201.058
 11
644.792
 21
-198.735
  0
LINE
  8
0
 10
644.792
 20
-198.735
 11
646.793
 21
-196.415
  0
LINE
  8
0
 10
646.793
 20
-196.415
 11
648.836
 21
-194.096
  0
LINE
  8
0
 10
648.836
 20
-194.096
 11
650.919
 21
-191.778
  0
LINE
  8
0
 10
650.919
 20
-191.778
 11
653.04
 21
-189.46
  0
LINE
  8
0
 10
653.04
 20
-189.46
 11
655.198
 21
-187.139
  0
LINE
  8
0
 10
655.198
 20
-187.139
 11
657.391
 21
-184.817
  0
LINE
  8
0
 10
657.391
 20
-184.817
 11
659.618
 21
-182.491
  0
LINE
  8
0
 10
659.618
 20
-182.491
 11
661.877
 21
-180.161
  0
LINE
  8
0
 10
661.877
 20
-180.161
 11
664.167
 21
-177.825
  0
LINE
  8
0
 10
664.167
 20
-177.825
 11
666.485
 21
-175.483
  0
LINE
  8
0
 10
666.485
 20
-175.483
 11
668.829
 21
-173.134
  0
LINE
  8
0
 10
668.829
 20
-173.134
 11
671.199
 21
-170.776
  0
LINE
  8
0
 10
671.199
 20
-170.776
 11
673.591
 21
-168.41
  0
LINE
  8
0
 10
673.591
 20
-168.41
 11
676.004
 21
-166.034
  0
LINE
  8
0
 10
676.004
 20
-166.034
 11
678.436
 21
-163.647
  0
LINE
  8
0
 10
678.436
 20
-163.647
 11
680.885
 21
-161.249
  0
LINE
  8
0
 10
680.885
 20
-161.249
 11
683.348
 21
-158.838
  0
LINE
  8
0
 10
683.348
 20
-158.838
 11
685.824
 21
-156.415
  0
LINE
  8
0
 10
685.824
 20
-156.415
 11
688.309
 21
-153.978
  0
LINE
  8
0
 10
688.309
 20
-153.978
 11
690.803
 21
-151.526
  0
LINE
  8
0
 10
690.803
 20
-151.526
 11
693.302
 21
-149.06
  0
LINE
  8
0
 10
693.302
 20
-149.06
 11
695.805
 21
-146.578
  0
LINE
  8
0
 10
695.805
 20
-146.578
 11
698.309
 21
-144.079
  0
LINE
  8
0
 10
698.309
 20
-144.079
 11
700.812
 21
-141.564
  0
LINE
  8
0
 10
700.812
 20
-141.564
 11
703.311
 21
-139.032
  0
LINE
  8
0
 10
703.311
 20
-139.032
 11
705.804
 21
-136.482
  0
LINE
  8
0
 10
705.804
 20
-136.482
 11
708.288
 21
-133.914
  0
LINE
  8
0
 10
708.288
 20
-133.914
 11
710.762
 21
-131.327
  0
LINE
  8
0
 10
710.762
 20
-131.327
 11
713.223
 21
-128.721
  0
LINE
  8
0
 10
713.223
 20
-128.721
 11
715.668
 21
-126.096
  0
LINE
  8
0
 10
715.668
 20
-126.096
 11
718.096
 21
-123.452
  0
LINE
  8
0
 10
718.096
 20
-123.452
 11
720.503
 21
-120.787
  0
LINE
  8
0
 10
720.503
 20
-120.787
 11
722.888
 21
-118.103
  0
LINE
  8
0
 10
722.888
 20
-118.103
 11
725.247
 21
-115.399
  0
LINE
  8
0
 10
725.247
 20
-115.399
 11
727.579
 21
-112.674
  0
LINE
  8
0
 10
727.579
 20
-112.674
 11
729.881
 21
-109.929
  0
LINE
  8
0
 10
729.881
 20
-109.929
 11
732.152
 21
-107.164
  0
LINE
  8
0
 10
732.152
 20
-107.164
 11
734.388
 21
-104.378
  0
LINE
  8
0
 10
734.388
 20
-104.378
 11
736.587
 21
-101.572
  0
LINE
  8
0
 10
736.587
 20
-101.572
 11
738.748
 21
-98.7458
  0
LINE
  8
0
 10
738.748
 20
-98.7458
 11
740.867
 21
-95.8994
  0
LINE
  8
0
 10
740.867
 20
-95.8994
 11
742.943
 21
-93.0331
  0
LINE
  8
0
 10
742.943
 20
-93.0331
 11
744.974
 21
-90.1471
  0
LINE
  8
0
 10
744.974
 20
-90.1471
 11
746.957
 21
-87.2415
  0
LINE
  8
0
 10
746.957
 20
-87.2415
 11
748.891
 21
-84.3167
  0
LINE
  8
0
 10
748.891
 20
-84.3167
 11
750.773
 21
-81.373
  0
LINE
  8
0
 10
750.773
 20
-81.373
 11
752.602
 21
-78.4108
  0
LINE
  8
0
 10
752.602
 20
-78.4108
 11
754.376
 21
-75.4303
  0
LINE
  8
0
 10
754.376
 20
-75.4303
 11
756.092
 21
-72.4322
  0
LINE
  8
0
 10
756.092
 20
-72.4322
 11
757.749
 21
-69.4168
  0
LINE
  8
0
 10
757.749
 20
-69.4168
 11
759.345
 21
-66.3846
  0
LINE
  8
0
 10
759.345
 20
-66.3846
 11
760.879
 21
-63.3361
  0
LINE
  8
0
 10
760.879
 20
-63.3361
 11
762.348
 21
-60.272
  0
LINE
  8
0
 10
762.348
 20
-60.272
 11
763.752
 21
-57.1927
  0
LINE
  8
0
 10
763.752
 20
-57.1927
 11
765.089
 21
-54.099
  0
LINE
  8
0
 10
765.089
 20
-54.099
 11
766.357
 21
-50.9914
  0
LINE
  8
0
 10
766.357
 20
-50.9914
 11
767.556
 21
-47.8707
  0
LINE
  8
0
 10
767.556
 20
-47.8707
 11
768.683
 21
-44.7374
  0
LINE
  8
0
 10
768.683
 20
-44.7374
 11
769.738
 21
-41.5924
  0
LINE
  8
0
 10
769.738
 20
-41.5924
 11
770.719
 21
-38.4364
  0
LINE
  8
0
 10
770.719
 20
-38.4364
 11
771.625
 21
-35.2701
  0
LINE
  8
0
 10
771.625
 20
-35.2701
 11
772.456
 21
-32.0944
  0
LINE
  8
0
 10
772.456
 20
-32.0944
 11
773.211
 21
-28.91
  0
LINE
  8
0
 10
773.211
 20
-28.91
 11
773.888
 21
-25.7178
  0
LINE
  8
0
 10
773.888
 20
-25.7178
 11
774.488
 21
-22.5186
  0
LINE
  8
0
 10
774.488
 20
-22.5186
 11
775.009
 21
-19.3132
  0
LINE
  8
0
 10
775.009
 20
-19.3132
 11
775.45
 21
-16.1025
  0
LINE
  8
0
 10
775.45
 20
-16.1025
 11
775.812
 21
-12.8873
  0
LINE
  8
0
 10
775.812
 20
-12.8873
 11
776.094
 21
-9.66861
  0
LINE
  8
0
 10
776.094
 20
-9.66861
 11
776.296
 21
-6.44722
  0
LINE
  8
0
 10
776.296
 20
-6.44722
 11
776.417
 21
-3.22406
  0
LINE
  8
0
 10
776.417
 20
-3.22406
 11
776.457
 21
0
  0
LINE
  8
0
 10
776.457
 20
0
 11
776.417
 21
3.22406
  0
LINE
  8
0
 10
776.417
 20
3.22406
 11
776.296
 21
6.44722
  0
LINE
  8
0
 10
776.296
 20
6.44722
 11
776.094
 21
9.66861
  0
LINE
  8
0
 10
776.094
 20
9.66861
 11
775.812
 21
12.8873
  0
LINE
  8
0
 10
775.812
 20
12.8873
 11
775.45
 21
16.1025
  0
LINE
  8
0
 10
775.45
 20
16.1025
 11
775.009
 21
19.3132
  0
LINE
  8
0
 10
775.009
 20
19.3132
 11
774.488
 21
22.5186
  0
LINE
  8
0
 10
774.488
 20
22.5186
 11
773.888
 21
25.7178
  0
LINE
  8
0
 10
773.888
 20
25.7178
 11
773.211
 21
28.91
  0
LINE
  8
0
 10
773.211
 20
28.91
 11
772.456
 21
32.0944
  0
LINE
  8
0
 10
772.456
 20
32.0944
 11
771.625
 21
35.2701
  0
LINE
  8
0
 10
771.625
 20
35.2701
 11
770.719
 21
38.4364
  0
LINE
  8
0
 10
770.719
 20
38.4364
 11
769.738
 21
41.5924
  0
LINE
  8
0
 10
769.738
 20
41.5924
 11
768.683
 21
44.7374
  0
LINE
  8
0
 10
768.683
 20
44.7374
 11
767.556
 21
47.8707
  0
LINE
  8
0
 10
767.556
 20
47.8707
 11
766.357
 21
50.9914
  0
LINE
  8
0
 10
766.357
 20
50.9914
 11
765.089
 21
54.099
  0
LINE
  8
0
 10
765.089
 20
54.099
 11
763.752
 21
57.1927
  0
LINE
  8
0
 10
763.752
 20
57.1927
 11
762.348
 21
60.272
  0
LINE
  8
0
 10
762.348
 20
60.272
 11
760.879
 21
63.3361
  0
LINE
  8
0
 10
760.879
 20
63.3361
 11
759.345
 21
66.3846
  0
LINE
  8
0
 10
759.345
 20
66.3846
 11
757.749
 21
69.4168
  0
LINE
  8
0
 10
757.749
 20
69.4168
 11
756.092
 21
72.4322
  0
LINE
  8
0
 10
756.092
 20
72.4322
 11
754.376
 21
75.4303
  0
LINE
  8
0
 10
754.376
 20
75.4303
 11
752.602
 21
78.4108
  0
LINE
  8
0
 10
752.602
 20
78.4108
 11
750.773
 21
81.373
  0
LINE
  8
0
 10
750.773
 20
81.373
 11
748.891
 21
84.3167
  0
LINE
  8
0
 10
748.891
 20
84.3167
 11
746.957
 21
87.2415
  0
LINE
  8
0
 10
746.957
 20
87.2415
 11
744.974
 21
90.1471
  0
LINE
  8
0
 10
744.974
 20
90.1471
 11
742.943
 21
93.0331
  0
LINE
  8
0
 10
742.943
 20
93.0331
 11
740.867
 21
95.8994
  0
LINE
  8
0
 10
740.867
 20
95.8994
 11
738.748
 21
98.7458
  0
LINE
  8
0
 10
738.748
 20
98.7458
 11
736.587
 21
101.572
  0
LINE
  8
0
 10
736.587
 20
101.572
 11
734.388
 21
104.378
  0
LINE
  8
0
 10
734.388
 20
104.378
 11
732.152
 21
107.164
  0
LINE
  8
0
 10
732.152
 20
107.164
 11
729.881
 21
109.929
  0
LINE
  8
0
 10
729.881
 20
109.929
 11
727.579
 21
112.674
  0
LINE
  8
0
 10
727.579
 20
112.674
 11
725.247
 21
115.399
  0
LINE
  8
0
 10
725.247
 20
115.399
 11
722.888
 21
118.103
  0
LINE
  8
0
 10
722.888
 20
118.103
 11
720.503
 21
120.787
  0
LINE
  8
0
 10
720.503
 20
120.787
 11
718.096
 21
123.452
  0
LINE
  8
0
 10
718.096
 20
123.452
 11
715.668
 21
126.096
  0
LINE
  8
0
 10
715.668
 20
126.096
 11
713.223
 21
128.721
  0
LINE
  8
0
 10
713.223
 20
128.721
 11
710.762
 21
131.327
  0
LINE
  8
0
 10
710.762
 20
131.327
 11
708.288
 21
133.914
  0
LINE
  8
0
 10
708.288
 20
133.914
 11
705.804
 21
136.482
  0
LINE
  8
0
 10
705.804
 20
136.482
 11
703.311
 21
139.032
  0
LINE
  8
0
 10
703.311
 20
139.032
 11
700.812
 21
141.564
  0
LINE
  8
0
 10
700.812
 20
141.564
 11
698.309
 21
144.079
  0
LINE
  8
0
 10
698.309
 20
144.079
 11
695.805
 21
146.578
  0
LINE
  8
0
 10
695.805
 20
146.578
 11
693.302
 21
149.06
  0
LINE
  8
0
 10
693.302
 20
149.06
 11
690.803
 21
151.526
  0
LINE
  8
0
 10
690.803
 20
151.526
 11
688.309
 21
153.978
  0
LINE
  8
0
 10
688.309
 20
153.978
 11
685.824
 21
156.415
  0
LINE
  8
0
 10
685.824
 20
156.415
 11
683.348
 21
158.838
  0
LINE
  8
0
 10
683.348
 20
158.838
 11
680.885
 21
161.249
  0
LINE
  8
0
 10
680.885
 20
161.249
 11
678.436
 21
163.647
  0
LINE
  8
0
 10
678.436
 20
163.647
 11
676.004
 21
166.034
  0
LINE
  8
0
 10
676.004
 20
166.034
 11
673.591
 21
168.41
  0
LINE
  8
0
 10
673.591
 20
168.41
 11
671.199
 21
170.776
  0
LINE
  8
0
 10
671.199
 20
170.776
 11
668.829
 21
173.134
  0
LINE
  8
0
 10
668.829
 20
173.134
 11
666.485
 21
175.483
  0
LINE
  8
0
 10
666.485
 20
175.483
 11
664.167
 21
177.825
  0
LINE
  8
0
 10
664.167
 20
177.825
 11
661.877
 21
180.161
  0
LINE
  8
0
 10
661.877
 20
180.161
 11
659.618
 21
182.491
  0
LINE
  8
0
 10
659.618
 20
182.491
 11
657.391
 21
184.817
  0
LINE
  8
0
 10
657.391
 20
184.817
 11
655.198
 21
187.139
  0
LINE
  8
0
 10
655.198
 20
187.139
 11
653.04
 21
189.46
  0
LINE
  8
0
 10
653.04
 20
189.46
 11
650.919
 21
191.778
  0
LINE
  8
0
 10
650.919
 20
191.778
 11
648.836
 21
194.096
  0
LINE
  8
0
 10
648.836
 20
194.096
 11
646.793
 21
196.415
  0
LINE
  8
0
 10
646.793
 20
196.415
 11
644.792
 21
198.735
  0
LINE
  8
0
 10
644.792
 20
198.735
 11
642.833
 21
201.058
  0
LINE
  8
0
 10
642.833
 20
201.058
 11
640.917
 21
203.385
  0
LINE
  8
0
 10
640.917
 20
203.385
 11
639.046
 21
205.716
  0
LINE
  8
0
 10
639.046
 20
205.716
 11
637.222
 21
208.052
  0
LINE
  8
0
 10
637.222
 20
208.052
 11
635.444
 21
210.396
  0
LINE
  8
0
 10
635.444
 20
210.396
 11
633.714
 21
212.747
  0
LINE
  8
0
 10
633.714
 20
212.747
 11
632.032
 21
215.107
  0
LINE
  8
0
 10
632.032
 20
215.107
 11
630.4
 21
217.476
  0
LINE
  8
0
 10
630.4
 20
217.476
 11
628.818
 21
219.857
  0
LINE
  8
0
 10
628.818
 20
219.857
 11
627.286
 21
222.249
  0
LINE
  8
0
 10
627.286
 20
222.249
 11
625.805
 21
224.653
  0
LINE
  8
0
 10
625.805
 20
224.653
 11
624.377
 21
227.072
  0
LINE
  8
0
 10
624.377
 20
227.072
 11
623
 21
229.504
  0
LINE
  8
0
 10
623
 20
229.504
 11
621.675
 21
231.953
  0
LINE
  8
0
 10
621.675
 20
231.953
 11
620.402
 21
234.417
  0
LINE
  8
0
 10
620.402
 20
234.417
 11
619.182
 21
236.899
  0
LINE
  8
0
 10
619.182
 20
236.899
 11
618.014
 21
239.399
  0
LINE
  8
0
 10
618.014
 20
239.399
 11
616.899
 21
241.918
  0
LINE
  8
0
 10
616.899
 20
241.918
 11
615.836
 21
244.456
  0
LINE
  8
0
 10
615.836
 20
244.456
 11
614.826
 21
247.015
  0
LINE
  8
0
 10
614.826
 20
247.015
 11
613.866
 21
249.595
  0
LINE
  8
0
 10
613.866
 20
249.595
 11
612.959
 21
252.197
  0
LINE
  8
0
 10
612.959
 20
252.197
 11
612.102
 21
254.822
  0
LINE
  8
0
 10
612.102
 20
254.822
 11
611.295
 21
257.47
  0
LINE
  8
0
 10
611.295
 20
257.47
 11
610.443
 21
259.483
  0
LINE
  8
0
 10
610.443
 20
259.483
 11
510.096
 21
219.482
  0
LINE
  8
0
 10
510.096
 20
219.482
 11
459.918
 21
199.479
  0
LINE
  8
0
 10
459.918
 20
199.479
 11
409.735
 21
179.474
  0
LINE
  8
0
 10
409.735
 20
179.474
 11
359.545
 21
159.467
  0
LINE
  8
0
 10
359.545
 20
159.467
 11
339.467
 21
151.462
  0
LINE
  8
0
 10
339.467
 20
151.462
 11
319.386
 21
143.457
  0
LINE
  8
0
 10
319.386
 20
143.457
 11
299.303
 21
135.451
  0
LINE
  8
0
 10
299.303
 20
135.451
 11
279.218
 21
127.444
  0
LINE
  8
0
 10
279.218
 20
127.444
 11
269.174
 21
123.44
  0
LINE
  8
0
 10
269.174
 20
123.44
 11
249.084
 21
115.43
  0
LINE
  8
0
 10
249.084
 20
115.43
 11
239.037
 21
111.424
  0
LINE
  8
0
 10
239.037
 20
111.424
 11
228.988
 21
107.418
  0
LINE
  8
0
 10
228.988
 20
107.418
 11
218.939
 21
103.411
  0
LINE
  8
0
 10
218.939
 20
103.411
 11
208.887
 21
99.4036
  0
LINE
  8
0
 10
208.887
 20
99.4036
 11
198.834
 21
95.395
  0
LINE
  8
0
 10
198.834
 20
95.395
 11
188.778
 21
91.3853
  0
LINE
  8
0
 10
188.778
 20
91.3853
 11
178.72
 21
87.3744
  0
LINE
  8
0
 10
178.72
 20
87.3744
 11
168.659
 21
83.362
  0
LINE
  8
0
 10
168.659
 20
83.362
 11
158.594
 21
79.3478
  0
LINE
  8
0
 10
158.594
 20
79.3478
 11
148.525
 21
75.3316
  0
LINE
  8
0
 10
148.525
 20
75.3316
 11
138.451
 21
71.3127
  0
LINE
  8
0
 10
138.451
 20
71.3127
 11
128.371
 21
67.2907
  0
LINE
  8
0
 10
128.371
 20
67.2907
 11
129.699
 21
64.6948
  0
LINE
  8
0
 10
129.699
 20
64.6948
 11
130.974
 21
62.0727
  0
LINE
  8
0
 10
130.974
 20
62.0727
 11
132.196
 21
59.4255
  0
LINE
  8
0
 10
132.196
 20
59.4255
 11
133.365
 21
56.7542
  0
LINE
  8
0
 10
133.365
 20
56.7542
 11
134.479
 21
54.06
  0
LINE
  8
0
 10
134.479
 20
54.06
 11
135.54
 21
51.3439
  0
LINE
  8
0
 10
135.54
 20
51.3439
 11
136.545
 21
48.6071
  0
LINE
  8
0
 10
136.545
 20
48.6071
 11
137.495
 21
45.8505
  0
LINE
  8
0
 10
137.495
 20
45.8505
 11
138.39
 21
43.0754
  0
LINE
  8
0
 10
138.39
 20
43.0754
 11
139.228
 21
40.2829
  0
LINE
  8
0
 10
139.228
 20
40.2829
 11
140.01
 21
37.4741
  0
LINE
  8
0
 10
140.01
 20
37.4741
 11
140.736
 21
34.6501
  0
LINE
  8
0
 10
140.736
 20
34.6501
 11
141.404
 21
31.8121
  0
LINE
  8
0
 10
141.404
 20
31.8121
 11
142.016
 21
28.9612
  0
LINE
  8
0
 10
142.016
 20
28.9612
 11
142.57
 21
26.0986
  0
LINE
  8
0
 10
142.57
 20
26.0986
 11
143.066
 21
23.2254
  0
LINE
  8
0
 10
143.066
 20
23.2254
 11
143.504
 21
20.3428
  0
LINE
  8
0
 10
143.504
 20
20.3428
 11
143.884
 21
17.452
  0
LINE
  8
0
 10
143.884
 20
17.452
 11
144.206
 21
14.5541
  0
LINE
  8
0
 10
144.206
 20
14.5541
 11
144.47
 21
11.6504
  0
LINE
  8
0
 10
144.47
 20
11.6504
 11
144.675
 21
8.74191
  0
LINE
  8
0
 10
144.675
 20
8.74191
 11
144.821
 21
5.82991
  0
LINE
  8
0
 10
144.821
 20
5.82991
 11
144.909
 21
2.91554
  0
LINE
  8
0
 10
144.909
 20
2.91554
 11
144.939
 21
0
  0
LINE
  8
0
 10
144.939
 20
0
 11
144.909
 21
-2.91554
  0
LINE
  8
0
 10
144.909
 20
-2.91554
 11
144.821
 21
-5.82991
  0
LINE
  8
0
 10
144.821
 20
-5.82991
 11
144.675
 21
-8.74191
  0
LINE
  8
0
 10
144.675
 20
-8.74191
 11
144.47
 21
-11.6504
  0
LINE
  8
0
 10
144.47
 20
-11.6504
 11
144.206
 21
-14.5541
  0
LINE
  8
0
 10
144.206
 20
-14.5541
 11
143.884
 21
-17.452
  0
LINE
  8
0
 10
143.884
 20
-17.452
 11
143.504
 21
-20.3428
  0
LINE
  8
0
 10
143.504
 20
-20.3428
 11
143.066
 21
-23.2254
  0
LINE
  8
0
 10
143.066
 20
-23.2254
 11
142.57
 21
-26.0986
  0
LINE
  8
0
 10
142.57
 20
-26.0986
 11
142.016
 21
-28.9612
  0
LINE
  8
0
 10
142.016
 20
-28.9612
 11
141.404
 21
-31.8121
  0
LINE
  8
0
 10
141.404
 20
-31.8121
 11
140.736
 21
-34.6501
  0
LINE
  8
0
 10
140.736
 20
-34.6501
 11
140.01
 21
-37.4741
  0
LINE
  8
0
 10
140.01
 20
-37.4741
 11
139.228
 21
-40.2829
  0
LINE
  8
0
 10
139.228
 20
-40.2829
 11
138.39
 21
-43.0754
  0
LINE
  8
0
 10
138.39
 20
-43.0754
 11
137.495
 21
-45.8505
  0
LINE
  8
0
 10
137.495
 20
-45.8505
 11
136.545
 21
-48.6071
  0
LINE
  8
0
 10
136.545
 20
-48.6071
 11
135.54
 21
-51.3439
  0
LINE
  8
0
 10
135.54
 20
-51.3439
 11
134.479
 21
-54.06
  0
LINE
  8
0
 10
134.479
 20
-54.06
 11
133.365
 21
-56.7542
  0
LINE
  8
0
 10
133.365
 20
-56.7542
 11
132.196
 21
-59.4255
  0
LINE
  8
0
 10
132.196
 20
-59.4255
 11
130.974
 21
-62.0727
  0
LINE
  8
0
 10
130.974
 20
-62.0727
 11
129.699
 21
-64.6948
  0
LINE
  8
0
 10
129.699
 20
-64.6948
 11
128.371
 21
-67.2907
  0
LINE
  8
0
 10
128.371
 20
-67.2907
 11
138.451
 21
-71.3127
  0
LINE
  8
0
 10
138.451
 20
-71.3127
 11
148.525
 21
-75.3316
  0
LINE
  8
0
 10
148.525
 20
-75.3316
 11
158.594
 21
-79.3478
  0
LINE
  8
0
 10
158.594
 20
-79.3478
 11
168.659
 21
-83.362
  0
LINE
  8
0
 10
168.659
 20
-83.362
 11
178.72
 21
-87.3744
  0
LINE
  8
0
 10
178.72
 20
-87.3744
 11
188.778
 21
-91.3853
  0
LINE
  8
0
 10
188.778
 20
-91.3853
 11
198.834
 21
-95.395
  0
LINE
  8
0
 10
198.834
 20
-95.395
 11
208.887
 21
-99.4036
  0
LINE
  8
0
 10
208.887
 20
-99.4036
 11
218.939
 21
-103.411
  0
LINE
  8
0
 10
218.939
 20
-103.411
 11
228.988
 21
-107.418
  0
LINE
  8
0
 10
228.988
 20
-107.418
 11
239.037
 21
-111.424
  0
LINE
  8
0
 10
239.037
 20
-111.424
 11
249.084
 21
-115.43
  0
LINE
  8
0
 10
249.084
 20
-115.43
 11
269.174
 21
-123.44
  0
LINE
  8
0
 10
269.174
 20
-123.44
 11
279.218
 21
-127.444
  0
LINE
  8
0
 10
279.218
 20
-127.444
 11
299.303
 21
-135.451
  0
LINE
  8
0
 10
299.303
 20
-135.451
 11
319.386
 21
-143.457
  0
LINE
  8
0
 10
319.386
 20
-143.457
 11
339.467
 21
-151.462
  0
LINE
  8
0
 10
339.467
 20
-151.462
 11
369.584
 21
-163.468
  0
LINE
  8
0
 10
369.584
 20
-163.468
 11
409.735
 21
-179.474
  0
LINE
  8
0
 10
409.735
 20
-179.474
 11
469.954
 21
-203.48
  0
LINE
  8
0
 10
469.954
 20
-203.48
 11
580.34
 21
-247.483
  0
LINE
  8
0
 10
580.34
 20
-247.483
 11
610.443
 21
-259.483
  0
LINE
  8
0
 10
610.443
 20
-259.483
 11
611.295
 21
-257.47
  0
LINE
  8
0
 10
514.22
 20
202.473
 11
513.166
 21
203.177
  0
LINE
  8
0
 10
513.166
 20
203.177
 11
512.461
 21
204.232
  0
LINE
  8
0
 10
512.461
 20
204.232
 11
512.214
 21
205.475
  0
LINE
  8
0
 10
512.214
 20
205.475
 11
512.461
 21
206.719
  0
LINE
  8
0
 10
512.461
 20
206.719
 11
513.166
 21
207.773
  0
LINE
  8
0
 10
513.166
 20
207.773
 11
514.22
 21
208.478
  0
LINE
  8
0
 10
514.22
 20
208.478
 11
515.464
 21
208.725
  0
LINE
  8
0
 10
515.464
 20
208.725
 11
516.707
 21
208.478
  0
LINE
  8
0
 10
516.707
 20
208.478
 11
517.762
 21
207.773
  0
LINE
  8
0
 10
517.762
 20
207.773
 11
518.466
 21
206.719
  0
LINE
  8
0
 10
518.466
 20
206.719
 11
518.714
 21
205.475
  0
LINE
  8
0
 10
518.714
 20
205.475
 11
518.466
 21
204.232
  0
LINE
  8
0
 10
518.466
 20
204.232
 11
517.762
 21
203.177
  0
LINE
  8
0
 10
517.762
 20
203.177
 11
516.707
 21
202.473
  0
LINE
  8
0
 10
516.707
 20
202.473
 11
515.464
 21
202.225
  0
LINE
  8
0
 10
515.464
 20
202.225
 11
514.22
 21
202.473
  0
LINE
  8
0
 10
425.264
 20
167.013
 11
424.21
 21
167.717
  0
LINE
  8
0
 10
424.21
 20
167.717
 11
423.505
 21
168.772
  0
LINE
  8
0
 10
423.505
 20
168.772
 11
423.258
 21
170.016
  0
LINE
  8
0
 10
423.258
 20
170.016
 11
423.505
 21
171.259
  0
LINE
  8
0
 10
423.505
 20
171.259
 11
424.21
 21
172.314
  0
LINE
  8
0
 10
424.21
 20
172.314
 11
425.264
 21
173.018
  0
LINE
  8
0
 10
425.264
 20
173.018
 11
426.508
 21
173.266
  0
LINE
  8
0
 10
426.508
 20
173.266
 11
427.751
 21
173.018
  0
LINE
  8
0
 10
427.751
 20
173.018
 11
428.806
 21
172.314
  0
LINE
  8
0
 10
428.806
 20
172.314
 11
429.51
 21
171.259
  0
LINE
  8
0
 10
429.51
 20
171.259
 11
429.758
 21
170.016
  0
LINE
  8
0
 10
429.758
 20
170.016
 11
429.51
 21
168.772
  0
LINE
  8
0
 10
429.51
 20
168.772
 11
428.806
 21
167.717
  0
LINE
  8
0
 10
428.806
 20
167.717
 11
427.751
 21
167.013
  0
LINE
  8
0
 10
427.751
 20
167.013
 11
426.508
 21
166.766
  0
LINE
  8
0
 10
426.508
 20
166.766
 11
425.264
 21
167.013
  0
LINE
  8
0
 10
336.308
 20
131.553
 11
335.254
 21
132.258
  0
LINE
  8
0
 10
335.254
 20
132.258
 11
334.549
 21
133.312
  0
LINE
  8
0
 10
334.549
 20
133.312
 11
334.302
 21
134.556
  0
LINE
  8
0
 10
334.302
 20
134.556
 11
334.549
 21
135.799
  0
LINE
  8
0
 10
334.549
 20
135.799
 11
335.254
 21
136.854
  0
LINE
  8
0
 10
335.254
 20
136.854
 11
336.308
 21
137.558
  0
LINE
  8
0
 10
336.308
 20
137.558
 11
337.552
 21
137.806
  0
LINE
  8
0
 10
337.552
 20
137.806
 11
338.795
 21
137.558
  0
LINE
  8
0
 10
338.795
 20
137.558
 11
339.85
 21
136.854
  0
LINE
  8
0
 10
339.85
 20
136.854
 11
340.554
 21
135.799
  0
LINE
  8
0
 10
340.554
 20
135.799
 11
340.802
 21
134.556
  0
LINE
  8
0
 10
340.802
 20
134.556
 11
340.554
 21
133.312
  0
LINE
  8
0
 10
340.554
 20
133.312
 11
339.85
 21
132.258
  0
LINE
  8
0
 10
339.85
 20
132.258
 11
338.795
 21
131.553
  0
LINE
  8
0
 10
338.795
 20
131.553
 11
337.552
 21
131.306
  0
LINE
  8
0
 10
337.552
 20
131.306
 11
336.308
 21
131.553
  0
LINE
  8
0
 10
212.266
 20
37.984
 11
211.211
 21
38.6885
  0
LINE
  8
0
 10
211.211
 20
38.6885
 11
210.507
 21
39.7429
  0
LINE
  8
0
 10
210.507
 20
39.7429
 11
210.26
 21
40.9866
  0
LINE
  8
0
 10
210.26
 20
40.9866
 11
210.507
 21
42.2304
  0
LINE
  8
0
 10
210.507
 20
42.2304
 11
211.211
 21
43.2847
  0
LINE
  8
0
 10
211.211
 20
43.2847
 11
212.266
 21
43.9893
  0
LINE
  8
0
 10
212.266
 20
43.9893
 11
213.51
 21
44.2366
  0
LINE
  8
0
 10
213.51
 20
44.2366
 11
214.753
 21
43.9893
  0
LINE
  8
0
 10
214.753
 20
43.9893
 11
215.808
 21
43.2847
  0
LINE
  8
0
 10
215.808
 20
43.2847
 11
216.512
 21
42.2304
  0
LINE
  8
0
 10
216.512
 20
42.2304
 11
216.76
 21
40.9866
  0
LINE
  8
0
 10
216.76
 20
40.9866
 11
216.512
 21
39.7429
  0
LINE
  8
0
 10
216.512
 20
39.7429
 11
215.808
 21
38.6885
  0
LINE
  8
0
 10
215.808
 20
38.6885
 11
214.753
 21
37.984
  0
LINE
  8
0
 10
214.753
 20
37.984
 11
213.51
 21
37.7366
  0
LINE
  8
0
 10
213.51
 20
37.7366
 11
212.266
 21
37.984
  0
LINE
  8
0
 10
743.485
 20
-4.61938
 11
741.863
 21
-3.53552
  0
LINE
  8
0
 10
741.863
 20
-3.53552
 11
740.779
 21
-1.91341
  0
LINE
  8
0
 10
740.779
 20
-1.91341
 11
740.399
 21
0
  0
LINE
  8
0
 10
740.399
 20
0
 11
740.779
 21
1.91341
  0
LINE
  8
0
 10
740.779
 20
1.91341
 11
741.863
 21
3.53552
  0
LINE
  8
0
 10
741.863
 20
3.53552
 11
743.485
 21
4.61938
  0
LINE
  8
0
 10
743.485
 20
4.61938
 11
745.399
 21
5
  0
LINE
  8
0
 10
745.399
 20
5
 11
747.312
 21
4.61938
  0
LINE
  8
0
 10
747.312
 20
4.61938
 11
748.934
 21
3.53552
  0
LINE
  8
0
 10
748.934
 20
3.53552
 11
750.018
 21
1.91341
  0
LINE
  8
0
 10
750.018
 20
1.91341
 11
750.399
 21
0
  0
LINE
  8
0
 10
750.399
 20
0
 11
750.018
 21
-1.91341
  0
LINE
  8
0
 10
750.018
 20
-1.91341
 11
748.934
 21
-3.53552
  0
LINE
  8
0
 10
748.934
 20
-3.53552
 11
747.312
 21
-4.61938
  0
LINE
  8
0
 10
747.312
 20
-4.61938
 11
745.399
 21
-5
  0
LINE
  8
0
 10
745.399
 20
-5
 11
743.485
 21
-4.61938
  0
LINE
  8
0
 10
216.164
 20
-3.00259
 11
215.11
 21
-2.2981
  0
LINE
  8
0
 10
215.11
 20
-2.2981
 11
214.405
 21
-1.24371
  0
LINE
  8
0
 10
214.405
 20
-1.24371
 11
214.158
 21
0
  0
LINE
  8
0
 10
214.158
 20
0
 11
214.405
 21
1.24371
  0
LINE
  8
0
 10
214.405
 20
1.24371
 11
215.11
 21
2.2981
  0
LINE
  8
0
 10
215.11
 20
2.2981
 11
216.164
 21
3.00259
  0
LINE
  8
0
 10
216.164
 20
3.00259
 11
217.408
 21
3.25
  0
LINE
  8
0
 10
217.408
 20
3.25
 11
218.652
 21
3.00259
  0
LINE
  8
0
 10
218.652
 20
3.00259
 11
219.706
 21
2.2981
  0
LINE
  8
0
 10
219.706
 20
2.2981
 11
220.411
 21
1.24371
  0
LINE
  8
0
 10
220.411
 20
1.24371
 11
220.658
 21
0
  0
LINE
  8
0
 10
220.658
 20
0
 11
220.411
 21
-1.24371
  0
LINE
  8
0
 10
220.411
 20
-1.24371
 11
219.706
 21
-2.2981
  0
LINE
  8
0
 10
219.706
 20
-2.2981
 11
218.652
 21
-3.00259
  0
LINE
  8
0
 10
218.652
 20
-3.00259
 11
217.408
 21
-3.25
  0
LINE
  8
0
 10
217.408
 20
-3.25
 11
216.164
 21
-3.00259
  0
LINE
  8
0
 10
212.266
 20
-43.9893
 11
211.211
 21
-43.2847
  0
LINE
  8
0
 10
211.211
 20
-43.2847
 11
210.507
 21
-42.2304
  0
LINE
  8
0
 10
210.507
 20
-42.2304
 11
210.26
 21
-40.9866
  0
LINE
  8
0
 10
210.26
 20
-40.9866
 11
210.507
 21
-39.7429
  0
LINE
  8
0
 10
210.507
 20
-39.7429
 11
211.211
 21
-38.6885
  0
LINE
  8
0
 10
211.211
 20
-38.6885
 11
212.266
 21
-37.984
  0
LINE
  8
0
 10
212.266
 20
-37.984
 11
213.51
 21
-37.7366
  0
LINE
  8
0
 10
213.51
 20
-37.7366
 11
214.753
 21
-37.984
  0
LINE
  8
0
 10
214.753
 20
-37.984
 11
215.808
 21
-38.6885
  0
LINE
  8
0
 10
215.808
 20
-38.6885
 11
216.512
 21
-39.7429
  0
LINE
  8
0
 10
216.512
 20
-39.7429
 11
216.76
 21
-40.9866
  0
LINE
  8
0
 10
216.76
 20
-40.9866
 11
216.512
 21
-42.2304
  0
LINE
  8
0
 10
216.512
 20
-42.2304
 11
215.808
 21
-43.2847
  0
LINE
  8
0
 10
215.808
 20
-43.2847
 11
214.753
 21
-43.9893
  0
LINE
  8
0
 10
214.753
 20
-43.9893
 11
213.51
 21
-44.2366
  0
LINE
  8
0
 10
213.51
 20
-44.2366
 11
212.266
 21
-43.9893
  0
LINE
  8
0
 10
336.308
 20
-137.558
 11
335.254
 21
-136.854
  0
LINE
  8
0
 10
335.254
 20
-136.854
 11
334.549
 21
-135.799
  0
LINE
  8
0
 10
334.549
 20
-135.799
 11
334.302
 21
-134.556
  0
LINE
  8
0
 10
334.302
 20
-134.556
 11
334.549
 21
-133.312
  0
LINE
  8
0
 10
334.549
 20
-133.312
 11
335.254
 21
-132.258
  0
LINE
  8
0
 10
335.254
 20
-132.258
 11
336.308
 21
-131.553
  0
LINE
  8
0
 10
336.308
 20
-131.553
 11
337.552
 21
-131.306
  0
LINE
  8
0
 10
337.552
 20
-131.306
 11
338.795
 21
-131.553
  0
LINE
  8
0
 10
338.795
 20
-131.553
 11
339.85
 21
-132.258
  0
LINE
  8
0
 10
339.85
 20
-132.258
 11
340.554
 21
-133.312
  0
LINE
  8
0
 10
340.554
 20
-133.312
 11
340.802
 21
-134.556
  0
LINE
  8
0
 10
340.802
 20
-134.556
 11
340.554
 21
-135.799
  0
LINE
  8
0
 10
340.554
 20
-135.799
 11
339.85
 21
-136.854
  0
LINE
  8
0
 10
339.85
 20
-136.854
 11
338.795
 21
-137.558
  0
LINE
  8
0
 10
338.795
 20
-137.558
 11
337.552
 21
-137.806
  0
LINE
  8
0
 10
337.552
 20
-137.806
 11
336.308
 21
-137.558
  0
LINE
  8
0
 10
425.264
 20
-173.018
 11
424.21
 21
-172.314
  0
LINE
  8
0
 10
424.21
 20
-172.314
 11
423.505
 21
-171.259
  0
LINE
  8
0
 10
423.505
 20
-171.259
 11
423.258
 21
-170.016
  0
LINE
  8
0
 10
423.258
 20
-170.016
 11
423.505
 21
-168.772
  0
LINE
  8
0
 10
423.505
 20
-168.772
 11
424.21
 21
-167.717
  0
LINE
  8
0
 10
424.21
 20
-167.717
 11
425.264
 21
-167.013
  0
LINE
  8
0
 10
425.264
 20
-167.013
 11
426.508
 21
-166.766
  0
LINE
  8
0
 10
426.508
 20
-166.766
 11
427.751
 21
-167.013
  0
LINE
  8
0
 10
427.751
 20
-167.013
 11
428.806
 21
-167.717
  0
LINE
  8
0
 10
428.806
 20
-167.717
 11
429.51
 21
-168.772
  0
LINE
  8
0
 10
429.51
 20
-168.772
 11
429.758
 21
-170.016
  0
LINE
  8
0
 10
429.758
 20
-170.016
 11
429.51
 21
-171.259
  0
LINE
  8
0
 10
429.51
 20
-171.259
 11
428.806
 21
-172.314
  0
LINE
  8
0
 10
428.806
 20
-172.314
 11
427.751
 21
-173.018
  0
LINE
  8
0
 10
427.751
 20
-173.018
 11
426.508
 21
-173.266
  0
LINE
  8
0
 10
426.508
 20
-173.266
 11
425.264
 21
-173.018
  0
LINE
  8
0
 10
514.22
 20
-208.478
 11
513.166
 21
-207.773
  0
LINE
  8
0
 10
513.166
 20
-207.773
 11
512.461
 21
-206.719
  0
LINE
  8
0
 10
512.461
 20
-206.719
 11
512.214
 21
-205.475
  0
LINE
  8
0
 10
512.214
 20
-205.475
 11
512.461
 21
-204.232
  0
LINE
  8
0
 10
512.461
 20
-204.232
 11
513.166
 21
-203.177
  0
LINE
  8
0
 10
513.166
 20
-203.177
 11
514.22
 21
-202.473
  0
LINE
  8
0
 10
514.22
 20
-202.473
 11
515.464
 21
-202.225
  0
LINE
  8
0
 10
515.464
 20
-202.225
 11
516.707
 21
-202.473
  0
LINE
  8
0
 10
516.707
 20
-202.473
 11
517.762
 21
-203.177
  0
LINE
  8
0
 10
517.762
 20
-203.177
 11
518.466
 21
-204.232
  0
LINE
  8
0
 10
518.466
 20
-204.232
 11
518.714
 21
-205.475
  0
LINE
  8
0
 10
518.714
 20
-205.475
 11
518.466
 21
-206.719
  0
LINE
  8
0
 10
518.466
 20
-206.719
 11
517.762
 21
-207.773
  0
LINE
  8
0
 10
517.762
 20
-207.773
 11
516.707
 21
-208.478
  0
LINE
  8
0
 10
516.707
 20
-208.478
 11
515.464
 21
-208.725
  0
LINE
  8
0
 10
515.464
 20
-208.725
 11
514.22
 21
-208.478
  0
ENDSEC
  0
SECTION
  2
OBJECTS
  0
DICTIONARY
  0
ENDSEC
  0
EOF
